G04 Layer_Physical_Order=1*
G04 Layer_Color=1462238*
%FSLAX25Y25*%
%MOIN*%
G70*
G01*
G75*
G04:AMPARAMS|DCode=10|XSize=19.68mil|YSize=39.37mil|CornerRadius=4.92mil|HoleSize=0mil|Usage=FLASHONLY|Rotation=90.000|XOffset=0mil|YOffset=0mil|HoleType=Round|Shape=RoundedRectangle|*
%AMROUNDEDRECTD10*
21,1,0.01968,0.02953,0,0,90.0*
21,1,0.00984,0.03937,0,0,90.0*
1,1,0.00984,0.01476,0.00492*
1,1,0.00984,0.01476,-0.00492*
1,1,0.00984,-0.01476,-0.00492*
1,1,0.00984,-0.01476,0.00492*
%
%ADD10ROUNDEDRECTD10*%
%ADD11R,0.02362X0.02362*%
G04:AMPARAMS|DCode=12|XSize=39.37mil|YSize=39.37mil|CornerRadius=9.84mil|HoleSize=0mil|Usage=FLASHONLY|Rotation=180.000|XOffset=0mil|YOffset=0mil|HoleType=Round|Shape=RoundedRectangle|*
%AMROUNDEDRECTD12*
21,1,0.03937,0.01968,0,0,180.0*
21,1,0.01968,0.03937,0,0,180.0*
1,1,0.01968,-0.00984,0.00984*
1,1,0.01968,0.00984,0.00984*
1,1,0.01968,0.00984,-0.00984*
1,1,0.01968,-0.00984,-0.00984*
%
%ADD12ROUNDEDRECTD12*%
%ADD13R,0.02953X0.03347*%
%ADD14O,0.03150X0.01575*%
%ADD15R,0.09449X0.11811*%
%ADD16O,0.00787X0.03150*%
%ADD17O,0.03150X0.00787*%
%ADD18R,0.18110X0.18110*%
%ADD19R,0.02362X0.02362*%
G04:AMPARAMS|DCode=20|XSize=31.5mil|YSize=39.37mil|CornerRadius=7.87mil|HoleSize=0mil|Usage=FLASHONLY|Rotation=270.000|XOffset=0mil|YOffset=0mil|HoleType=Round|Shape=RoundedRectangle|*
%AMROUNDEDRECTD20*
21,1,0.03150,0.02362,0,0,270.0*
21,1,0.01575,0.03937,0,0,270.0*
1,1,0.01575,-0.01181,-0.00787*
1,1,0.01575,-0.01181,0.00787*
1,1,0.01575,0.01181,0.00787*
1,1,0.01575,0.01181,-0.00787*
%
%ADD20ROUNDEDRECTD20*%
%ADD21R,0.06299X0.07874*%
%ADD22R,0.05512X0.02362*%
%ADD23R,0.04331X0.05512*%
%ADD24R,0.01378X0.01378*%
%ADD25R,0.01968X0.00984*%
%ADD26R,0.03937X0.07087*%
G04:AMPARAMS|DCode=27|XSize=59.05mil|YSize=86.61mil|CornerRadius=14.76mil|HoleSize=0mil|Usage=FLASHONLY|Rotation=90.000|XOffset=0mil|YOffset=0mil|HoleType=Round|Shape=RoundedRectangle|*
%AMROUNDEDRECTD27*
21,1,0.05905,0.05709,0,0,90.0*
21,1,0.02953,0.08661,0,0,90.0*
1,1,0.02953,0.02854,0.01476*
1,1,0.02953,0.02854,-0.01476*
1,1,0.02953,-0.02854,-0.01476*
1,1,0.02953,-0.02854,0.01476*
%
%ADD27ROUNDEDRECTD27*%
%ADD28R,0.02165X0.01772*%
%ADD29O,0.03150X0.01181*%
%ADD30O,0.01181X0.03150*%
%ADD31R,0.03937X0.02756*%
%ADD32C,0.01181*%
%ADD33C,0.01968*%
%ADD34C,0.00787*%
%ADD35C,0.01063*%
%ADD36C,0.00984*%
%ADD37C,0.00500*%
%ADD38C,0.01575*%
%ADD39C,0.00866*%
%ADD40C,0.01378*%
%ADD41R,0.04528X0.38583*%
%ADD42R,0.02559X0.03543*%
%ADD43R,0.04724X0.12402*%
%ADD44R,0.05512X0.03150*%
%ADD45R,0.07677X0.03740*%
%ADD46R,0.05512X0.05118*%
%ADD47O,0.08661X0.07087*%
%ADD48R,0.08661X0.07087*%
G04:AMPARAMS|DCode=49|XSize=86.61mil|YSize=59.05mil|CornerRadius=14.76mil|HoleSize=0mil|Usage=FLASHONLY|Rotation=0.000|XOffset=0mil|YOffset=0mil|HoleType=Round|Shape=RoundedRectangle|*
%AMROUNDEDRECTD49*
21,1,0.08661,0.02953,0,0,0.0*
21,1,0.05709,0.05905,0,0,0.0*
1,1,0.02953,0.02854,-0.01476*
1,1,0.02953,-0.02854,-0.01476*
1,1,0.02953,-0.02854,0.01476*
1,1,0.02953,0.02854,0.01476*
%
%ADD49ROUNDEDRECTD49*%
%ADD50C,0.02362*%
G36*
X85250Y12612D02*
X85295Y12582D01*
X85305Y12531D01*
X85566Y12141D01*
X85957Y11880D01*
X86417Y11788D01*
X88779D01*
X88791Y11790D01*
X89092Y11340D01*
X89079Y11321D01*
X88942Y10630D01*
X89079Y9939D01*
X89303Y9603D01*
X90539Y10839D01*
X90748Y10630D01*
X90957Y10839D01*
X92193Y9603D01*
X92417Y9939D01*
X92554Y10630D01*
X92417Y11321D01*
X92661Y11855D01*
X92784Y11880D01*
X93174Y12141D01*
X93440D01*
X93831Y11880D01*
X94291Y11788D01*
X96653D01*
X97114Y11880D01*
X97243Y11965D01*
X97245D01*
X97374Y11880D01*
X97835Y11788D01*
X99804D01*
X100216Y11296D01*
X100162Y11024D01*
X100300Y10332D01*
X100524Y9997D01*
X101760Y11232D01*
X102177Y10815D01*
X100942Y9579D01*
X101277Y9355D01*
X101969Y9217D01*
X102660Y9355D01*
X102847Y9480D01*
X103347Y9212D01*
Y7126D01*
X102847Y6859D01*
X102660Y6984D01*
X101969Y7121D01*
X101277Y6984D01*
X100942Y6759D01*
X102177Y5524D01*
X101969Y5315D01*
X102177Y5106D01*
X100942Y3870D01*
X101277Y3646D01*
X101502Y3601D01*
Y3092D01*
X101277Y3047D01*
X100942Y2822D01*
X102177Y1587D01*
X101760Y1169D01*
X100524Y2405D01*
X100300Y2069D01*
X100162Y1378D01*
X100300Y687D01*
X100424Y500D01*
X100157Y0D01*
X82903D01*
X82854Y500D01*
X83008Y531D01*
X83789Y1052D01*
X83998Y913D01*
X84842Y745D01*
X86811D01*
X87656Y913D01*
X88372Y1392D01*
X88851Y2108D01*
X88942Y2568D01*
X89211Y2701D01*
X89489Y2753D01*
X89937Y2454D01*
X90551Y2331D01*
X90551Y2331D01*
X92207D01*
X92252Y2108D01*
X92730Y1392D01*
X93446Y913D01*
X94291Y745D01*
X96260D01*
X97105Y913D01*
X97821Y1392D01*
X98299Y2108D01*
X98468Y2953D01*
Y4921D01*
X98299Y5766D01*
X97821Y6482D01*
X97105Y6961D01*
X96260Y7129D01*
X94291D01*
X93446Y6961D01*
X92730Y6482D01*
X92252Y5766D01*
X92207Y5543D01*
X91216D01*
X84206Y12553D01*
X83849Y12791D01*
X83889Y12992D01*
X83821Y13334D01*
X84282Y13580D01*
X85250Y12612D01*
D02*
G37*
G36*
X100424Y58555D02*
X100300Y58368D01*
X100162Y57677D01*
X100300Y56986D01*
X100524Y56650D01*
X101760Y57886D01*
X102177Y57468D01*
X100942Y56233D01*
X101277Y56008D01*
X101969Y55871D01*
X102660Y56008D01*
X102847Y56133D01*
X103347Y55866D01*
Y54174D01*
X102847Y53906D01*
X102660Y54031D01*
X101969Y54169D01*
X101277Y54031D01*
X100942Y53807D01*
X102177Y52571D01*
X101969Y52362D01*
X102177Y52153D01*
X100942Y50918D01*
X101277Y50693D01*
X101969Y50556D01*
X102660Y50693D01*
X102847Y50818D01*
X103347Y50551D01*
Y48465D01*
X102847Y48198D01*
X102660Y48322D01*
X101969Y48460D01*
X101277Y48322D01*
X100942Y48098D01*
X102177Y46862D01*
X101969Y46654D01*
X102177Y46445D01*
X100942Y45209D01*
X101277Y44985D01*
X101969Y44847D01*
X102660Y44985D01*
X102847Y45109D01*
X103347Y44842D01*
Y42559D01*
X102847Y42292D01*
X102660Y42417D01*
X101969Y42554D01*
X101277Y42417D01*
X100942Y42193D01*
X102177Y40957D01*
X101969Y40748D01*
X102177Y40539D01*
X100942Y39303D01*
X101277Y39079D01*
X101969Y38942D01*
X102660Y39079D01*
X102847Y39204D01*
X103347Y38937D01*
Y36654D01*
X102847Y36387D01*
X102660Y36511D01*
X101969Y36649D01*
X101277Y36511D01*
X100942Y36287D01*
X102177Y35051D01*
X101969Y34843D01*
X102177Y34634D01*
X100942Y33398D01*
X101277Y33174D01*
X101969Y33036D01*
X102660Y33174D01*
X102847Y33298D01*
X103347Y33031D01*
Y30748D01*
X102847Y30481D01*
X102660Y30606D01*
X101969Y30743D01*
X101277Y30606D01*
X100942Y30382D01*
X102177Y29146D01*
X101969Y28937D01*
X102177Y28728D01*
X100942Y27492D01*
X101277Y27268D01*
X101969Y27131D01*
X102660Y27268D01*
X102847Y27393D01*
X103347Y27126D01*
Y24843D01*
X102847Y24576D01*
X102660Y24700D01*
X101969Y24838D01*
X101277Y24700D01*
X100942Y24476D01*
X102177Y23240D01*
X101969Y23031D01*
X102177Y22823D01*
X100942Y21587D01*
X101277Y21363D01*
X101969Y21225D01*
X102660Y21363D01*
X102847Y21487D01*
X103347Y21220D01*
Y18937D01*
X102847Y18670D01*
X102660Y18795D01*
X101969Y18932D01*
X101336Y18807D01*
X101168Y18853D01*
X100836Y19030D01*
Y19685D01*
X100771Y19842D01*
X99225Y18295D01*
X98807Y18713D01*
X100354Y20259D01*
X100197Y20324D01*
X97835D01*
X97800Y20310D01*
X97418Y20693D01*
X97490Y20866D01*
Y23228D01*
X97344Y23581D01*
X97330Y23784D01*
X97435Y24167D01*
X97702Y24345D01*
X97963Y24736D01*
X98055Y25197D01*
Y27559D01*
X97963Y28020D01*
X97702Y28411D01*
X97311Y28672D01*
X96850Y28763D01*
X95151D01*
X94610Y29304D01*
Y31201D01*
X94518Y31662D01*
X94257Y32052D01*
X93866Y32313D01*
X93763Y32334D01*
X93735Y32619D01*
X91720Y34634D01*
X92126Y35039D01*
X91720Y35445D01*
X93785Y37510D01*
X93734Y37757D01*
X93749Y37795D01*
Y40157D01*
X93685Y40314D01*
X92138Y38768D01*
X91720Y39185D01*
X93267Y40732D01*
X93110Y40797D01*
X90748D01*
X90395Y40651D01*
X90193Y40638D01*
X89810Y40742D01*
X89631Y41009D01*
X89240Y41270D01*
X88779Y41362D01*
X86417D01*
X85957Y41270D01*
X85566Y41009D01*
X85305Y40618D01*
X85243Y40307D01*
X84881Y40112D01*
X84713Y40089D01*
X84602Y40177D01*
Y41886D01*
X84842Y42084D01*
X86811D01*
X87656Y42252D01*
X88372Y42730D01*
X88851Y43446D01*
X89019Y44291D01*
Y46260D01*
X88851Y47105D01*
X88372Y47821D01*
X87656Y48300D01*
X86811Y48468D01*
X84842D01*
X84602Y48665D01*
Y50007D01*
X84910Y50068D01*
X85300Y50330D01*
X85479Y50597D01*
X85862Y50701D01*
X86065Y50688D01*
X86417Y50542D01*
X88779D01*
X88936Y50607D01*
X87390Y52153D01*
X87807Y52571D01*
X89354Y51024D01*
X89419Y51181D01*
Y53543D01*
X89325Y53770D01*
X89257Y54134D01*
X89325Y54498D01*
X89419Y54724D01*
Y57087D01*
X89354Y57243D01*
X87807Y55697D01*
X87390Y56114D01*
X88936Y57661D01*
X88779Y57726D01*
X86417D01*
X86065Y57580D01*
X85862Y57567D01*
X85479Y57671D01*
X85300Y57938D01*
X84910Y58199D01*
X84449Y58291D01*
X82087D01*
X81735Y58221D01*
X81478Y58291D01*
X81354Y58555D01*
X81669Y59055D01*
X100157D01*
X100424Y58555D01*
D02*
G37*
G36*
X598Y19901D02*
X1355Y18914D01*
X2342Y18157D01*
X3491Y17681D01*
X4724Y17518D01*
X6299D01*
X7532Y17681D01*
X8682Y18157D01*
X9669Y18914D01*
X9998Y19343D01*
X10627Y19342D01*
X10712Y19230D01*
X10705Y19193D01*
Y17815D01*
X10797Y17354D01*
X11058Y16963D01*
X11449Y16702D01*
X11909Y16611D01*
X13154D01*
Y14787D01*
X11811D01*
X11350Y14695D01*
X10960Y14434D01*
X10699Y14043D01*
X10662Y13860D01*
X10142Y13809D01*
X9910Y14368D01*
X9429Y14996D01*
X6717Y12284D01*
X9429Y9571D01*
X9910Y10199D01*
X10174Y10835D01*
X10694Y10784D01*
X10699Y10760D01*
X10960Y10369D01*
X11227Y10190D01*
X11331Y9808D01*
X11318Y9605D01*
X11172Y9252D01*
Y6890D01*
X11237Y6733D01*
X12783Y8280D01*
X13201Y7862D01*
X11654Y6316D01*
X11811Y6251D01*
X14173D01*
X14437Y6360D01*
X14938Y6097D01*
Y3734D01*
X14476Y3543D01*
X13734Y4285D01*
X13213Y4633D01*
X12598Y4755D01*
X12598Y4755D01*
X11029D01*
X10955Y5320D01*
X10687Y5966D01*
X10261Y6521D01*
X9706Y6947D01*
X9060Y7215D01*
X8366Y7306D01*
X2657D01*
X1964Y7215D01*
X1317Y6947D01*
X762Y6521D01*
X500Y6180D01*
X0Y6349D01*
Y20037D01*
X500Y20137D01*
X598Y19901D01*
D02*
G37*
G36*
X36185Y58555D02*
X36120Y58362D01*
X35534Y57970D01*
X35142Y57384D01*
X35068Y57011D01*
X30118D01*
X29657Y56920D01*
X29267Y56659D01*
X29115Y56432D01*
X28445D01*
X27892Y56322D01*
X26575D01*
X26114Y56231D01*
X25984Y56144D01*
X25855Y56231D01*
X25394Y56322D01*
X23031D01*
X22858Y56465D01*
Y57087D01*
X22766Y57547D01*
X22505Y57938D01*
X22114Y58199D01*
X21654Y58291D01*
X15354D01*
X14894Y58199D01*
X14503Y57938D01*
X14242Y57547D01*
X14150Y57087D01*
Y49213D01*
X14242Y48752D01*
X14503Y48361D01*
Y48096D01*
X14242Y47705D01*
X14150Y47244D01*
Y39736D01*
X14077Y39663D01*
X13686Y39077D01*
X13548Y38386D01*
Y37229D01*
X12202D01*
X12051Y37729D01*
X11024Y38756D01*
X9997Y37729D01*
X10332Y37504D01*
X10518Y37467D01*
X10631Y36935D01*
X10474Y36825D01*
X10303Y36939D01*
X9843Y37031D01*
X1181D01*
X720Y36939D01*
X500Y36792D01*
X0Y37016D01*
Y59055D01*
X35853D01*
X36185Y58555D01*
D02*
G37*
G36*
X77983Y58555D02*
X77859Y58368D01*
X77721Y57677D01*
X77859Y56986D01*
X78083Y56650D01*
X79319Y57886D01*
X79736Y57468D01*
X78462Y56195D01*
X78327Y55747D01*
X77165D01*
X76397Y55594D01*
X76132Y55647D01*
X76048Y55773D01*
X75658Y56034D01*
X75197Y56125D01*
X65748D01*
X65287Y56034D01*
X64897Y55773D01*
X64812Y55647D01*
X64548Y55594D01*
X63779Y55747D01*
X62205D01*
X61547Y55616D01*
X61047Y55889D01*
Y56496D01*
X60955Y56957D01*
X60694Y57348D01*
X60303Y57609D01*
X59842Y57700D01*
X57480D01*
X57020Y57609D01*
X56629Y57348D01*
X56363D01*
X55973Y57609D01*
X55512Y57700D01*
X53150D01*
X52689Y57609D01*
X52559Y57522D01*
X52429Y57609D01*
X51968Y57700D01*
X51854D01*
X50999Y58555D01*
X51206Y59055D01*
X77716D01*
X77983Y58555D01*
D02*
G37*
%LPC*%
G36*
X90748Y10212D02*
X89721Y9185D01*
X90057Y8961D01*
X90748Y8824D01*
X91439Y8961D01*
X91775Y9185D01*
X90748Y10212D01*
D02*
G37*
G36*
X100524Y6342D02*
X100300Y6006D01*
X100162Y5315D01*
X100300Y4624D01*
X100524Y4288D01*
X101551Y5315D01*
X100524Y6342D01*
D02*
G37*
G36*
Y35870D02*
X100300Y35534D01*
X100162Y34843D01*
X100300Y34151D01*
X100524Y33816D01*
X101551Y34843D01*
X100524Y35870D01*
D02*
G37*
G36*
Y41775D02*
X100300Y41439D01*
X100162Y40748D01*
X100300Y40057D01*
X100524Y39721D01*
X101551Y40748D01*
X100524Y41775D01*
D02*
G37*
G36*
X93980Y36869D02*
X92150Y35039D01*
X93980Y33209D01*
X94045Y33366D01*
Y36713D01*
X93980Y36869D01*
D02*
G37*
G36*
X100524Y29964D02*
X100300Y29628D01*
X100162Y28937D01*
X100300Y28246D01*
X100524Y27910D01*
X101551Y28937D01*
X100524Y29964D01*
D02*
G37*
G36*
Y24058D02*
X100300Y23723D01*
X100162Y23031D01*
X100300Y22340D01*
X100524Y22005D01*
X101551Y23031D01*
X100524Y24058D01*
D02*
G37*
G36*
Y53389D02*
X100300Y53053D01*
X100162Y52362D01*
X100300Y51671D01*
X100524Y51335D01*
X101551Y52362D01*
X100524Y53389D01*
D02*
G37*
G36*
X92989Y47145D02*
X92808Y46874D01*
X92686Y46260D01*
Y44291D01*
X92808Y43677D01*
X92989Y43406D01*
X94858Y45276D01*
X92989Y47145D01*
D02*
G37*
G36*
X97562Y47145D02*
X95693Y45276D01*
X97562Y43406D01*
X97743Y43677D01*
X97865Y44291D01*
Y46260D01*
X97743Y46874D01*
X97562Y47145D01*
D02*
G37*
G36*
X95276Y44858D02*
X93406Y42989D01*
X93677Y42808D01*
X94291Y42686D01*
X96260D01*
X96874Y42808D01*
X97145Y42989D01*
X95276Y44858D01*
D02*
G37*
G36*
X96260Y47866D02*
X94291D01*
X93677Y47743D01*
X93406Y47563D01*
X95276Y45693D01*
X97145Y47563D01*
X96874Y47743D01*
X96260Y47866D01*
D02*
G37*
G36*
X100524Y47681D02*
X100300Y47345D01*
X100162Y46654D01*
X100300Y45962D01*
X100524Y45627D01*
X101551Y46654D01*
X100524Y47681D01*
D02*
G37*
G36*
X1595Y14996D02*
X1113Y14368D01*
X697Y13363D01*
X555Y12284D01*
X697Y11204D01*
X1113Y10199D01*
X1595Y9571D01*
X4307Y12284D01*
X1595Y14996D01*
D02*
G37*
G36*
X6299Y16453D02*
X4724D01*
X3645Y16311D01*
X2640Y15894D01*
X2012Y15413D01*
X4933Y12492D01*
X4724Y12284D01*
X4933Y12075D01*
X2012Y9154D01*
X2640Y8672D01*
X3645Y8256D01*
X4724Y8114D01*
X6299D01*
X7378Y8256D01*
X8384Y8672D01*
X9011Y9154D01*
X6090Y12075D01*
X6299Y12284D01*
X6090Y12492D01*
X9011Y15413D01*
X8384Y15894D01*
X7378Y16311D01*
X6299Y16453D01*
D02*
G37*
G36*
X12468Y40200D02*
X11441Y39173D01*
X12468Y38146D01*
X12693Y38482D01*
X12830Y39173D01*
X12693Y39865D01*
X12468Y40200D01*
D02*
G37*
G36*
X9579D02*
X9355Y39865D01*
X9217Y39173D01*
X9355Y38482D01*
X9579Y38146D01*
X10606Y39173D01*
X9579Y40200D01*
D02*
G37*
G36*
X11024Y40980D02*
X10332Y40842D01*
X9997Y40618D01*
X11024Y39591D01*
X12051Y40618D01*
X11715Y40842D01*
X11024Y40980D01*
D02*
G37*
G36*
X4331Y42102D02*
X1024Y38796D01*
X1181Y38731D01*
X7480D01*
X7637Y38796D01*
X4331Y42102D01*
D02*
G37*
G36*
X11220Y55685D02*
X10193Y54658D01*
X10529Y54434D01*
X11220Y54296D01*
X11912Y54434D01*
X12247Y54658D01*
X11220Y55685D01*
D02*
G37*
G36*
X8055Y57243D02*
X4540Y53728D01*
X4331Y53937D01*
X4122Y53728D01*
X607Y57243D01*
X542Y57087D01*
Y49213D01*
X607Y49056D01*
X4122Y52571D01*
X4331Y52362D01*
X4540Y52571D01*
X8055Y49056D01*
X8119Y49213D01*
Y57087D01*
X8055Y57243D01*
D02*
G37*
G36*
X7480Y57726D02*
X1181D01*
X1024Y57661D01*
X4331Y54355D01*
X7637Y57661D01*
X7480Y57726D01*
D02*
G37*
G36*
X11220Y57909D02*
X10529Y57771D01*
X10193Y57547D01*
X11220Y56520D01*
X12247Y57547D01*
X11912Y57771D01*
X11220Y57909D01*
D02*
G37*
G36*
X12665Y57129D02*
X11638Y56102D01*
X12665Y55075D01*
X12889Y55411D01*
X13027Y56102D01*
X12889Y56794D01*
X12665Y57129D01*
D02*
G37*
G36*
X9776D02*
X9552Y56794D01*
X9414Y56102D01*
X9552Y55411D01*
X9776Y55075D01*
X10803Y56102D01*
X9776Y57129D01*
D02*
G37*
G36*
X4331Y51945D02*
X1024Y48638D01*
X1181Y48573D01*
X7480D01*
X7637Y48638D01*
X4331Y51945D01*
D02*
G37*
G36*
X8055Y47401D02*
X4540Y43886D01*
X4331Y44094D01*
X4122Y43886D01*
X607Y47401D01*
X542Y47244D01*
Y39370D01*
X607Y39213D01*
X4122Y42728D01*
X4331Y42520D01*
X4540Y42728D01*
X8055Y39213D01*
X8119Y39370D01*
Y47244D01*
X8055Y47401D01*
D02*
G37*
G36*
X7480Y47883D02*
X1181D01*
X1024Y47818D01*
X4331Y44512D01*
X7637Y47818D01*
X7480Y47883D01*
D02*
G37*
%LPD*%
D10*
X132087Y8071D02*
D03*
Y21850D02*
D03*
X120276D02*
D03*
Y29724D02*
D03*
X132087D02*
D03*
Y37598D02*
D03*
X120276D02*
D03*
Y45472D02*
D03*
X132087D02*
D03*
Y53347D02*
D03*
X120276D02*
D03*
D11*
X99016Y18504D02*
D03*
Y14173D02*
D03*
X36220Y8465D02*
D03*
Y4134D02*
D03*
X32677D02*
D03*
Y8465D02*
D03*
X87598Y14173D02*
D03*
Y18504D02*
D03*
X54528Y39567D02*
D03*
Y35236D02*
D03*
X58071Y39567D02*
D03*
Y35236D02*
D03*
X95669Y26378D02*
D03*
Y22047D02*
D03*
X49016Y7087D02*
D03*
Y2756D02*
D03*
Y14961D02*
D03*
Y10630D02*
D03*
X32677Y16339D02*
D03*
Y12008D02*
D03*
X29134Y16339D02*
D03*
Y12008D02*
D03*
X45669Y24409D02*
D03*
Y20079D02*
D03*
Y33268D02*
D03*
Y28937D02*
D03*
X12992Y8071D02*
D03*
Y12402D02*
D03*
X25197Y20276D02*
D03*
Y24606D02*
D03*
X24213Y53937D02*
D03*
Y49606D02*
D03*
X27756Y53937D02*
D03*
Y49606D02*
D03*
Y40354D02*
D03*
Y44685D02*
D03*
X18110Y20276D02*
D03*
Y24606D02*
D03*
X21654Y20276D02*
D03*
Y24606D02*
D03*
X18110Y37008D02*
D03*
Y32677D02*
D03*
X21654D02*
D03*
Y37008D02*
D03*
D12*
X95276Y45276D02*
D03*
X85827Y3937D02*
D03*
X95276D02*
D03*
X85827Y45276D02*
D03*
D13*
X91929Y35039D02*
D03*
X87598D02*
D03*
Y29528D02*
D03*
X91929D02*
D03*
D14*
X77953Y53740D02*
D03*
Y50591D02*
D03*
Y44291D02*
D03*
Y47441D02*
D03*
X62992Y50591D02*
D03*
Y53740D02*
D03*
Y47441D02*
D03*
Y44291D02*
D03*
D15*
X70472Y49016D02*
D03*
D16*
X76378Y30315D02*
D03*
X77953D02*
D03*
X74803D02*
D03*
X73228D02*
D03*
X66929D02*
D03*
X68504D02*
D03*
X71653D02*
D03*
X70079D02*
D03*
X63779D02*
D03*
X65354D02*
D03*
X62205D02*
D03*
X60630D02*
D03*
Y6693D02*
D03*
X62205D02*
D03*
X65354D02*
D03*
X63779D02*
D03*
X70079D02*
D03*
X71653D02*
D03*
X68504D02*
D03*
X66929D02*
D03*
X73228D02*
D03*
X74803D02*
D03*
X77953D02*
D03*
X76378D02*
D03*
D17*
X81102Y27165D02*
D03*
Y25591D02*
D03*
Y22441D02*
D03*
Y24016D02*
D03*
Y17717D02*
D03*
Y16142D02*
D03*
Y19291D02*
D03*
Y20866D02*
D03*
Y14567D02*
D03*
Y12992D02*
D03*
Y9843D02*
D03*
Y11417D02*
D03*
X57480D02*
D03*
Y9843D02*
D03*
Y12992D02*
D03*
Y14567D02*
D03*
Y20866D02*
D03*
Y19291D02*
D03*
Y16142D02*
D03*
Y17717D02*
D03*
Y24016D02*
D03*
Y22441D02*
D03*
Y25591D02*
D03*
Y27165D02*
D03*
D18*
X69291Y18504D02*
D03*
D19*
X58661Y55315D02*
D03*
X54331D02*
D03*
X46457D02*
D03*
X50787D02*
D03*
X46457Y50984D02*
D03*
X50787D02*
D03*
X95472Y14173D02*
D03*
X91142D02*
D03*
X83268Y55905D02*
D03*
X87598D02*
D03*
X83268Y52362D02*
D03*
X87598D02*
D03*
X33661Y20079D02*
D03*
X29331D02*
D03*
X87598Y22047D02*
D03*
X91929D02*
D03*
X87598Y25591D02*
D03*
X91929D02*
D03*
X65945Y35236D02*
D03*
X61614D02*
D03*
X77953Y35039D02*
D03*
X82284D02*
D03*
X87598Y38976D02*
D03*
X91929D02*
D03*
X79134Y2756D02*
D03*
X74803D02*
D03*
X66929D02*
D03*
X71260D02*
D03*
X53543D02*
D03*
X57874D02*
D03*
X45472D02*
D03*
X41142D02*
D03*
Y6299D02*
D03*
X45472D02*
D03*
Y11811D02*
D03*
X41142D02*
D03*
X45472Y15354D02*
D03*
X41142D02*
D03*
X37795Y20079D02*
D03*
X42126D02*
D03*
X22244Y27953D02*
D03*
X17913D02*
D03*
D20*
X52165Y27362D02*
D03*
Y31299D02*
D03*
D21*
X18504Y53150D02*
D03*
X4331D02*
D03*
X18504Y43307D02*
D03*
X4331D02*
D03*
D22*
X41142Y39862D02*
D03*
Y44783D02*
D03*
Y49705D02*
D03*
Y54626D02*
D03*
X32874Y39862D02*
D03*
Y44783D02*
D03*
Y49705D02*
D03*
Y54626D02*
D03*
D23*
X28150Y4922D02*
D03*
X18307Y4921D02*
D03*
D24*
X12598Y18504D02*
D03*
X14961D02*
D03*
X12598Y21654D02*
D03*
X14961D02*
D03*
X12598Y24803D02*
D03*
X14961D02*
D03*
D25*
X25591Y12598D02*
D03*
Y14567D02*
D03*
Y16535D02*
D03*
X17717D02*
D03*
Y14567D02*
D03*
Y12598D02*
D03*
D26*
X21654Y14567D02*
D03*
D27*
X5512Y3150D02*
D03*
D28*
X25197Y36811D02*
D03*
Y32874D02*
D03*
D29*
X41732Y29134D02*
D03*
Y27165D02*
D03*
Y25197D02*
D03*
Y31102D02*
D03*
Y33071D02*
D03*
X31496Y25197D02*
D03*
Y27165D02*
D03*
Y33071D02*
D03*
Y31102D02*
D03*
Y29134D02*
D03*
D30*
X36614Y24016D02*
D03*
X38583D02*
D03*
X34646D02*
D03*
X38583Y34252D02*
D03*
X34646D02*
D03*
X36614D02*
D03*
D31*
X13779Y34647D02*
D03*
X13779Y28348D02*
D03*
D32*
X49016Y7087D02*
X53543Y2559D01*
X36614Y31102D02*
Y34252D01*
Y27165D02*
Y31102D01*
X54528Y39055D02*
Y39567D01*
X57874Y5512D02*
X60630D01*
X56102D02*
X57874D01*
X57874Y5512D02*
X57874Y5512D01*
X57874Y2756D02*
Y5512D01*
X55709Y5906D02*
X56102Y5512D01*
X60630D02*
Y6693D01*
X61811Y44291D02*
X62992D01*
X60039Y46063D02*
X61811Y44291D01*
X58858Y46063D02*
X60039D01*
X50787Y51181D02*
X50984Y50984D01*
X24409Y40354D02*
X24409Y40354D01*
X27756D01*
X82874Y52362D02*
Y55905D01*
X65354Y22441D02*
X69291Y18504D01*
X65354Y34646D02*
X65945Y35236D01*
X58071Y32087D02*
Y35236D01*
X36811Y54921D02*
Y56693D01*
X32874Y54626D02*
X36516D01*
X36811Y54921D01*
X27854Y44783D02*
X32874D01*
X27559Y21850D02*
X29331Y20079D01*
X32874Y39862D02*
X33169Y40157D01*
X35827D01*
X36811Y41142D01*
Y54921D01*
X28248Y39862D02*
X32874D01*
X27756Y40354D02*
X28248Y39862D01*
X27756Y53937D02*
X28445Y54626D01*
X32874D01*
X32677Y4134D02*
X36220D01*
X39567Y6299D02*
X41535D01*
X21654Y14567D02*
Y20276D01*
X18110D02*
X21654D01*
X25591Y10827D02*
Y12598D01*
X14961Y14567D02*
Y18504D01*
Y12598D02*
Y14567D01*
Y12598D02*
X17717D01*
X12992Y12402D02*
X13189Y12598D01*
X14961D01*
X5709Y32087D02*
X18110D01*
X5512Y32283D02*
X5709Y32087D01*
X18504Y43307D02*
Y53150D01*
Y41535D02*
Y43307D01*
X15354Y38386D02*
X18504Y41535D01*
X15354Y36222D02*
Y38386D01*
X13779Y34647D02*
X15354Y36222D01*
X14961Y24803D02*
Y27166D01*
Y21654D02*
Y24803D01*
Y18504D02*
Y21654D01*
X13779Y28348D02*
X14961Y27166D01*
X12598Y21654D02*
Y24803D01*
Y18504D02*
Y21654D01*
X77953Y53740D02*
X82087D01*
X82795Y53031D01*
X82284Y35039D02*
X82795D01*
X82284D02*
X82677Y34646D01*
Y28346D02*
Y34646D01*
X77953Y35039D02*
X79724Y33268D01*
Y29134D02*
Y33268D01*
X31496Y27165D02*
X36614D01*
X36614Y27165D01*
X31496Y31102D02*
X36417D01*
X27756D02*
X31496D01*
X29724Y27165D02*
X31496D01*
X58071Y39567D02*
X58583Y39055D01*
X65945Y35236D02*
Y36378D01*
X58583Y39055D02*
X63268D01*
X63583Y38740D01*
Y38386D02*
Y38740D01*
X65945Y36378D01*
X82795Y45276D02*
X86811D01*
X82795Y35039D02*
Y45276D01*
Y53031D01*
X84055Y13386D02*
X86417Y11024D01*
X84055Y13386D02*
Y13386D01*
X91929Y22244D02*
Y25197D01*
X92126Y22047D02*
X95079D01*
X98032D01*
X91929Y25197D02*
X92126Y25394D01*
X77953Y35039D02*
Y37008D01*
X79134Y38189D01*
X21654Y32087D02*
X22047Y32480D01*
X26378D01*
X27756Y31102D01*
X27559Y21850D02*
Y24606D01*
Y25000D01*
X42126Y20079D02*
X45669D01*
X42126Y19685D02*
Y20079D01*
X40555Y18114D02*
Y18114D01*
X40748Y18307D01*
X40551Y18110D02*
X40555Y18114D01*
X42126Y19685D01*
X37598Y4331D02*
X39567Y6299D01*
X51696Y4603D02*
X53543Y2756D01*
X51696Y4603D02*
Y4815D01*
X53543Y2559D02*
X53543D01*
X91929Y19882D02*
Y22047D01*
Y19882D02*
X92126Y19685D01*
X91929Y22244D02*
X92126Y22047D01*
X98032D02*
X98228Y22244D01*
X53937Y38976D02*
X54528Y39567D01*
X52362Y38976D02*
X53937D01*
X51378Y37992D02*
X52362Y38976D01*
X54528Y39055D02*
X58583D01*
X24213Y45866D02*
Y49606D01*
X24606Y45276D02*
X27559D01*
X27756Y44685D02*
Y44882D01*
Y48622D01*
Y44882D02*
X27854Y44783D01*
X24213Y49606D02*
X27756D01*
D33*
X99410Y8071D02*
X133071D01*
Y14173D01*
Y45472D02*
Y53347D01*
X119291D02*
X133071D01*
X119291Y45472D02*
X133071D01*
X119291Y37598D02*
Y45472D01*
Y37598D02*
X133071D01*
Y29724D02*
Y37598D01*
X119291Y29724D02*
X133071D01*
X119291Y21850D02*
Y29724D01*
Y21850D02*
X133071D01*
Y14173D02*
Y21850D01*
X99016Y14173D02*
X133071D01*
X91142D02*
X91339D01*
X87598D02*
X91142D01*
X84449Y16535D02*
X86811Y14173D01*
X87598D01*
X95472D02*
X99016D01*
X5512Y12284D02*
X9724Y8071D01*
X12992D01*
X13780D01*
X15551Y9843D01*
X19685D01*
X21654Y11811D01*
Y14567D01*
D34*
X83268Y17717D02*
X84449Y16535D01*
X86811Y3937D02*
Y5660D01*
X82628Y9843D02*
X86811Y5660D01*
X81102Y9843D02*
X82628D01*
X36614Y31102D02*
X38583D01*
X36417D02*
X36614D01*
X40551Y33071D02*
Y33071D01*
X38583Y31102D02*
X40551Y33071D01*
Y33071D02*
X41732D01*
X50787Y55315D02*
X54331D01*
X50787Y51181D02*
Y55315D01*
Y56496D01*
X49606Y57677D02*
X50787Y56496D01*
X37795Y57677D02*
X49606D01*
X36811Y56693D02*
X37795Y57677D01*
X33661Y19675D02*
Y20079D01*
X33661Y19675D02*
X33661Y19675D01*
X25591Y16535D02*
X29331D01*
X25197Y20276D02*
X25591Y19882D01*
Y16535D02*
Y19882D01*
X5512Y3150D02*
X12598D01*
X21654Y14567D02*
X25591D01*
X29331Y16535D02*
X32480D01*
X29331D02*
X29724Y16929D01*
X29134Y16339D02*
X29331Y16535D01*
X32480D02*
X32677Y16339D01*
X82677Y28346D02*
X82874Y28150D01*
X82874Y27165D02*
X82874Y27165D01*
X81102Y27165D02*
X82874D01*
X82874Y27165D02*
Y28150D01*
X79724Y28937D02*
Y29134D01*
X70079Y19291D02*
X81102D01*
X69291Y18504D02*
X70079Y19291D01*
X79724Y28937D01*
X81102Y17717D02*
X83268D01*
X81102Y19291D02*
X84842D01*
X85630Y18504D01*
X88779D01*
X88779Y18504D01*
X93701D01*
X95079Y19882D01*
X34646Y21063D02*
Y24016D01*
X33661Y20079D02*
X34646Y21063D01*
X41535Y25000D02*
X41732Y25197D01*
X40354Y25000D02*
X41535D01*
X40354Y22441D02*
Y25000D01*
X37992Y20079D02*
X40354Y22441D01*
X41732Y27165D02*
X43110D01*
X45866Y24409D01*
X99016Y22047D02*
X99410Y22441D01*
X91929Y35039D02*
X93898Y33071D01*
X94685D01*
X21654Y20276D02*
Y20472D01*
X25197Y24016D01*
Y24606D01*
X27559D01*
X27559Y24606D01*
X38083Y484D02*
X40354Y2756D01*
X12598Y3150D02*
X15264Y484D01*
X38083D01*
X95079Y19882D02*
Y22047D01*
X98032D02*
X99016D01*
X54528Y35236D02*
X55028Y34736D01*
Y30645D02*
Y34736D01*
Y30645D02*
X56065Y29608D01*
Y27400D02*
Y29608D01*
Y27400D02*
X56102Y27362D01*
X81102Y11417D02*
X83071D01*
X90551Y3937D01*
X94488D01*
X94882D01*
D35*
X65354Y22441D02*
Y30315D01*
Y34646D01*
X27559Y25000D02*
X29724Y27165D01*
D36*
X61614Y35236D02*
X63779Y33071D01*
Y30315D02*
Y33071D01*
X58071Y32087D02*
X60039D01*
X60630Y31496D01*
Y30315D02*
Y31496D01*
D37*
X74803Y2756D02*
Y6693D01*
X71653Y3150D02*
Y6693D01*
X14961Y14567D02*
X17717D01*
X16732Y30512D02*
X17913Y29331D01*
X11536Y30512D02*
X16732D01*
X10827Y29802D02*
X11536Y30512D01*
X10827Y22284D02*
Y29802D01*
X17913Y27953D02*
Y29331D01*
X18110Y24606D02*
X21654D01*
Y27362D01*
X22244Y27953D01*
Y29331D01*
X22835Y29921D01*
X25118D01*
X28740Y29134D02*
X31496D01*
X27953Y37008D02*
X28150Y36811D01*
X18110Y37008D02*
X21654D01*
X31791Y49705D02*
X32874D01*
X29724Y51772D02*
X31791Y49705D01*
X26378Y51772D02*
X29724D01*
X24213Y53937D02*
X26378Y51772D01*
X41142Y49705D02*
X42028Y50591D01*
X46260D01*
X42815Y44783D02*
X45276Y42323D01*
X47244Y34646D02*
Y50197D01*
X45866Y33268D02*
X47244Y34646D01*
X46457Y50984D02*
X46555Y50886D01*
X47244Y50197D01*
X43110Y36024D02*
X45866Y33268D01*
X39370Y36024D02*
X43110D01*
X38583Y35236D02*
X39370Y36024D01*
X38583Y34252D02*
Y35236D01*
X51378Y41732D02*
X59449D01*
X50787Y42323D02*
X51378Y41732D01*
X59449D02*
X60630Y40551D01*
X59863Y42732D02*
X61044Y41551D01*
X57284Y42732D02*
X59863D01*
X55512Y44504D02*
X57284Y42732D01*
X58661Y55315D02*
X60236Y53740D01*
X55512Y49016D02*
X60236Y53740D01*
X60236D02*
X60236D01*
X62992D01*
X55512Y44504D02*
Y49016D01*
X61044Y41551D02*
X64748D01*
X70079Y36220D01*
Y30315D02*
Y36220D01*
X60630Y40551D02*
X64334D01*
X68504Y36381D01*
Y30315D02*
Y36381D01*
X61453Y42754D02*
X64960D01*
X60474Y43732D02*
X61453Y42754D01*
X57874Y43732D02*
X60474D01*
X56512Y45094D02*
X57874Y43732D01*
X56512Y45094D02*
Y48601D01*
X58501Y50591D01*
X62992D01*
X73228Y30315D02*
X73228Y30315D01*
X77953Y47441D02*
X80315Y45079D01*
X76378Y30315D02*
Y33071D01*
X79528Y50591D02*
X81315Y48803D01*
X77953Y50591D02*
X79528D01*
X75803Y33646D02*
X76378Y33071D01*
X87598Y35039D02*
Y38976D01*
X83465Y25591D02*
X84018Y26144D01*
X81102Y25591D02*
X83465D01*
X81102Y24016D02*
X83661D01*
X85018Y25372D01*
X86221Y33661D02*
X87598Y35039D01*
X85018Y25372D02*
Y31278D01*
X86024Y32283D01*
X89173D01*
X84018Y26144D02*
Y31852D01*
X85827Y33661D01*
X86221D01*
X84449Y22441D02*
X87598Y25591D01*
X80905Y22441D02*
X81102D01*
X84449D01*
X81102Y20866D02*
X86024D01*
X87402Y22244D01*
X64370Y2756D02*
X66929D01*
X79528D02*
X82087D01*
X71653Y30315D02*
X71653Y30315D01*
X71653Y30315D02*
Y36060D01*
X64960Y42754D02*
X71653Y36060D01*
X45472Y11811D02*
Y12561D01*
X50628D01*
X57480Y9843D02*
X57677D01*
X51181Y10630D02*
X51968Y9843D01*
X51181Y10630D02*
Y12008D01*
X51968Y9843D02*
X57480D01*
X50628Y12561D02*
X51181Y12008D01*
X52559Y11417D02*
X57480D01*
X52559Y11417D02*
X52559Y11417D01*
X52181Y11795D02*
X52559Y11417D01*
X52181Y11795D02*
Y12422D01*
X51042Y13561D02*
X52181Y12422D01*
X50415Y13561D02*
X51042D01*
X49409Y14567D02*
X50415Y13561D01*
X49409Y14567D02*
Y15157D01*
X49016Y10630D02*
X49606D01*
X52362Y7874D01*
X53025Y12992D02*
X57480D01*
X50947Y15070D02*
X53025Y12992D01*
X47365Y16732D02*
X47524Y16892D01*
X47244Y16732D02*
X47365D01*
X45866Y15354D02*
X47244Y16732D01*
X45472Y15354D02*
X45866D01*
X52865Y14567D02*
X57480D01*
X51947Y15485D02*
X52865Y14567D01*
X53528Y26554D02*
Y26591D01*
X52362Y27756D02*
X53528Y26591D01*
X48425Y28384D02*
Y31102D01*
Y53347D01*
X41732Y31102D02*
X48425D01*
X45866Y28937D02*
X46458D01*
X48053Y27342D01*
X48425Y28384D02*
X49053Y27756D01*
X54516Y16142D02*
X57480D01*
X51947Y15485D02*
Y18285D01*
X45472Y2756D02*
Y6299D01*
Y8071D01*
Y2756D02*
X48622D01*
X43307Y10236D02*
X45472Y8071D01*
X43307Y10236D02*
Y16929D01*
X44291Y17913D01*
X49053Y26332D02*
Y27756D01*
X48053Y25918D02*
Y27342D01*
X55905Y25591D02*
X57480D01*
X53528Y26554D02*
X56066Y24016D01*
X57480D01*
X55672Y17717D02*
X57480D01*
X55512Y19291D02*
X57480D01*
X55389Y20866D02*
X57480D01*
X55315Y22441D02*
X57480D01*
X54921Y26575D02*
X55905Y25591D01*
X54921Y26575D02*
Y29134D01*
X53347Y30709D02*
X54921Y29134D01*
X54124Y23632D02*
X55315Y22441D01*
X53623Y22632D02*
X55389Y20866D01*
X52757Y20632D02*
X55672Y17717D01*
X47524Y16892D02*
X50507D01*
X50947Y16452D01*
Y15070D02*
Y16452D01*
X49606Y21654D02*
X49606D01*
X26871Y27264D02*
X28740Y29134D01*
X51947Y18285D02*
X51968Y18307D01*
X21654Y37008D02*
X27953D01*
X41142Y54626D02*
X45965D01*
X46457Y55118D01*
X46555Y55216D02*
X48425Y53347D01*
X96850Y16929D02*
X97244D01*
X98032Y17717D01*
X92323Y29528D02*
X95472Y26378D01*
X91535Y29528D02*
X91929D01*
X92323D01*
X89173Y32283D02*
X91929Y29528D01*
X91929Y38976D02*
X92126D01*
X93898Y37205D01*
X87598Y52362D02*
X87795D01*
X87598Y55905D02*
X87795D01*
X89567Y54134D01*
X89764Y53937D01*
X87795Y52362D02*
X89567Y54134D01*
X73228Y30315D02*
Y38386D01*
X77953Y43110D01*
Y44291D01*
X75803Y33646D02*
Y37811D01*
X74803Y38225D02*
X79332Y42754D01*
X79377D01*
X75803Y37811D02*
X79746Y41754D01*
X79791D01*
X81315Y43278D01*
X79377Y42754D02*
X80315Y43692D01*
Y45079D01*
X74803Y30315D02*
Y38225D01*
X81315Y43278D02*
Y48803D01*
X35433Y58661D02*
X35592Y58821D01*
X51734D01*
X51772Y58858D01*
X97342Y20177D02*
X99016Y18504D01*
X99213D01*
X96457Y19291D02*
X97342Y20177D01*
X64173Y2559D02*
X64370Y2756D01*
X25118Y29921D02*
X25197Y29842D01*
X40748Y14961D02*
X41142Y15354D01*
X36692Y12213D02*
X41134D01*
X41142Y12205D01*
X40551Y15157D02*
X40748Y14961D01*
X39764Y14370D02*
X40551Y15157D01*
X39567Y14567D02*
X39764Y14370D01*
X38583Y14567D02*
X39567D01*
X44291Y17913D02*
X48031D01*
X50750Y20632D01*
X52757D01*
X48622Y22638D02*
X49606Y21654D01*
X53150D01*
X55512Y19291D01*
X48053Y25918D02*
X51317Y22654D01*
X53564D01*
X53585Y22632D01*
X53623D01*
X49053Y26332D02*
X51731Y23653D01*
X53978D01*
X54000Y23632D01*
X54124D01*
D38*
X33661Y19675D02*
Y20079D01*
X29134Y8465D02*
Y12008D01*
Y8465D02*
X29134Y8465D01*
X32677D01*
X18307Y5512D02*
X20276D01*
X25591Y10827D01*
X10827Y22284D02*
X11850D01*
X5512D02*
X10827D01*
X35433Y9252D02*
Y9539D01*
X34224Y8493D02*
X34252Y8465D01*
X34224Y13263D02*
X34252D01*
Y13583D01*
X35433Y9252D02*
X36220Y8465D01*
X36220Y8465D01*
X34252Y9539D02*
X35433D01*
X34224Y8493D02*
Y13263D01*
X34252Y8465D02*
X36220D01*
X35433Y20079D02*
X37795D01*
X37992D01*
X33661D02*
X35433D01*
X34391Y13870D02*
X35146Y14624D01*
Y14673D01*
X35433Y14961D01*
Y20079D01*
X29134Y5118D02*
Y8465D01*
X34252D01*
D39*
X91339Y25591D02*
X91929D01*
X87795Y29134D02*
X91339Y25591D01*
D40*
X87000Y58276D02*
X87008Y58268D01*
X81594Y58276D02*
X87000D01*
X81586Y58268D02*
X81594Y58276D01*
X76378Y58268D02*
X81586D01*
D41*
X101083Y39764D02*
D03*
D42*
X102067Y17717D02*
D03*
D43*
X100984Y6201D02*
D03*
D44*
X90748Y10236D02*
D03*
D45*
X93405Y18209D02*
D03*
D46*
X36614Y29134D02*
D03*
D47*
X5512Y12284D02*
D03*
Y22284D02*
D03*
D48*
Y32283D02*
D03*
D49*
Y3150D02*
D03*
D50*
X101969Y5315D02*
D03*
Y11024D02*
D03*
Y17126D02*
D03*
X24606Y45276D02*
D03*
X82874Y38189D02*
D03*
X55709Y5906D02*
D03*
X58858Y46063D02*
D03*
X24409Y40354D02*
D03*
X58071Y32087D02*
D03*
X50787Y42323D02*
D03*
X82087Y2756D02*
D03*
X63976D02*
D03*
X45276Y42323D02*
D03*
X28150Y36811D02*
D03*
X26871Y27468D02*
D03*
X63583Y38386D02*
D03*
X52559Y7677D02*
D03*
X48531Y22708D02*
D03*
X53937Y16535D02*
D03*
X51575Y18701D02*
D03*
X101969Y1378D02*
D03*
Y23031D02*
D03*
Y28937D02*
D03*
Y34843D02*
D03*
Y40748D02*
D03*
Y46654D02*
D03*
Y52362D02*
D03*
Y57677D02*
D03*
X11220Y56102D02*
D03*
X79134Y38189D02*
D03*
X79527Y57677D02*
D03*
X11024Y39173D02*
D03*
X90748Y10630D02*
D03*
Y17520D02*
D03*
X25197Y29842D02*
D03*
X36692Y12213D02*
D03*
X76181Y18701D02*
D03*
X62598Y18701D02*
D03*
X69488Y25591D02*
D03*
X36614Y31102D02*
D03*
X38583Y14567D02*
D03*
X40748Y18307D02*
D03*
X35630Y17520D02*
D03*
X34449Y2559D02*
D03*
X51696Y4815D02*
D03*
X51378Y37992D02*
D03*
X21654Y16535D02*
D03*
M02*
