M48
;Layer_Color=9474304
;FILE_FORMAT=2:5
INCH,TZ
;TYPE=PLATED
T1F00S00C0.01181
T2F00S00C0.03150
%
T01
X34449Y2559
X36692Y12213
X38583Y14567
X35630Y17520
X40748Y18307
X51575Y18701
X53937Y16535
X52559Y7677
X51696Y4815
X48531Y22708
X51378Y37992
X50787Y42323
X45276
X36614Y31102
X25197Y29842
X26871Y27468
X28150Y36811
X24409Y40354
X24606Y45276
X11024Y39173
X21654Y16535
X62598Y18701
X76181Y18701
X69488Y25591
X58071Y32087
X63583Y38386
X58858Y46063
X79134Y38189
X82874Y38189
X101969Y40748
Y34843
Y28937
Y23031
Y17126
Y11024
Y5315
Y1378
X90748Y10630
Y17520
X82087Y2756
X63976
X55709Y5906
X101969Y46654
Y52362
Y57677
X79527Y57677
X11220Y56102
T02
X5512Y3150
Y12284
Y22284
Y32283
M30
