G04 Layer_Color=8388736*
%FSLAX25Y25*%
%MOIN*%
G70*
G01*
G75*
%ADD54R,0.02441X0.02441*%
G04:AMPARAMS|DCode=55|XSize=40.16mil|YSize=40.16mil|CornerRadius=10.24mil|HoleSize=0mil|Usage=FLASHONLY|Rotation=180.000|XOffset=0mil|YOffset=0mil|HoleType=Round|Shape=RoundedRectangle|*
%AMROUNDEDRECTD55*
21,1,0.04016,0.01968,0,0,180.0*
21,1,0.01968,0.04016,0,0,180.0*
1,1,0.02047,-0.00984,0.00984*
1,1,0.02047,0.00984,0.00984*
1,1,0.02047,0.00984,-0.00984*
1,1,0.02047,-0.00984,-0.00984*
%
%ADD55ROUNDEDRECTD55*%
%ADD56R,0.03032X0.03425*%
%ADD57O,0.03543X0.01968*%
%ADD58R,0.10000X0.12362*%
%ADD59O,0.01024X0.03386*%
%ADD60O,0.03386X0.01024*%
%ADD61R,0.18661X0.18661*%
%ADD62R,0.02441X0.02441*%
G04:AMPARAMS|DCode=63|XSize=32.28mil|YSize=40.16mil|CornerRadius=8.27mil|HoleSize=0mil|Usage=FLASHONLY|Rotation=270.000|XOffset=0mil|YOffset=0mil|HoleType=Round|Shape=RoundedRectangle|*
%AMROUNDEDRECTD63*
21,1,0.03228,0.02362,0,0,270.0*
21,1,0.01575,0.04016,0,0,270.0*
1,1,0.01654,-0.01181,-0.00787*
1,1,0.01654,-0.01181,0.00787*
1,1,0.01654,0.01181,0.00787*
1,1,0.01654,0.01181,-0.00787*
%
%ADD63ROUNDEDRECTD63*%
%ADD64R,0.06378X0.07953*%
%ADD65R,0.05591X0.02441*%
%ADD66R,0.04409X0.05591*%
%ADD67R,0.01614X0.01614*%
%ADD68R,0.02205X0.01221*%
%ADD69R,0.04173X0.07323*%
G04:AMPARAMS|DCode=70|XSize=59.84mil|YSize=87.4mil|CornerRadius=15.16mil|HoleSize=0mil|Usage=FLASHONLY|Rotation=90.000|XOffset=0mil|YOffset=0mil|HoleType=Round|Shape=RoundedRectangle|*
%AMROUNDEDRECTD70*
21,1,0.05984,0.05709,0,0,90.0*
21,1,0.02953,0.08740,0,0,90.0*
1,1,0.03032,0.02854,0.01476*
1,1,0.03032,0.02854,-0.01476*
1,1,0.03032,-0.02854,-0.01476*
1,1,0.03032,-0.02854,0.01476*
%
%ADD70ROUNDEDRECTD70*%
%ADD71R,0.02244X0.01850*%
%ADD72O,0.03386X0.01417*%
%ADD73O,0.01417X0.03386*%
%ADD74R,0.04016X0.02835*%
%ADD75O,0.08740X0.07165*%
%ADD76R,0.08740X0.07165*%
G04:AMPARAMS|DCode=77|XSize=87.4mil|YSize=59.84mil|CornerRadius=15.16mil|HoleSize=0mil|Usage=FLASHONLY|Rotation=0.000|XOffset=0mil|YOffset=0mil|HoleType=Round|Shape=RoundedRectangle|*
%AMROUNDEDRECTD77*
21,1,0.08740,0.02953,0,0,0.0*
21,1,0.05709,0.05984,0,0,0.0*
1,1,0.03032,0.02854,-0.01476*
1,1,0.03032,-0.02854,-0.01476*
1,1,0.03032,-0.02854,0.01476*
1,1,0.03032,0.02854,0.01476*
%
%ADD77ROUNDEDRECTD77*%
D54*
X99016Y18504D02*
D03*
Y14173D02*
D03*
X36220Y8465D02*
D03*
Y4134D02*
D03*
X32677D02*
D03*
Y8465D02*
D03*
X87598Y14173D02*
D03*
Y18504D02*
D03*
X54528Y39567D02*
D03*
Y35236D02*
D03*
X58071Y39567D02*
D03*
Y35236D02*
D03*
X95669Y26378D02*
D03*
Y22047D02*
D03*
X49016Y7087D02*
D03*
Y2756D02*
D03*
Y14961D02*
D03*
Y10630D02*
D03*
X32677Y16339D02*
D03*
Y12008D02*
D03*
X29134Y16339D02*
D03*
Y12008D02*
D03*
X45669Y24409D02*
D03*
Y20079D02*
D03*
Y33268D02*
D03*
Y28937D02*
D03*
X12992Y8071D02*
D03*
Y12402D02*
D03*
X25197Y20276D02*
D03*
Y24606D02*
D03*
X24213Y53937D02*
D03*
Y49606D02*
D03*
X27756Y53937D02*
D03*
Y49606D02*
D03*
Y40354D02*
D03*
Y44685D02*
D03*
X18110Y20276D02*
D03*
Y24606D02*
D03*
X21654Y20276D02*
D03*
Y24606D02*
D03*
X18110Y37008D02*
D03*
Y32677D02*
D03*
X21654D02*
D03*
Y37008D02*
D03*
D55*
X95276Y45276D02*
D03*
X85827Y3937D02*
D03*
X95276D02*
D03*
X85827Y45276D02*
D03*
D56*
X91929Y35039D02*
D03*
X87598D02*
D03*
Y29528D02*
D03*
X91929D02*
D03*
D57*
X77953Y53740D02*
D03*
Y50591D02*
D03*
Y44291D02*
D03*
Y47441D02*
D03*
X62992Y50591D02*
D03*
Y53740D02*
D03*
Y47441D02*
D03*
Y44291D02*
D03*
D58*
X70472Y49016D02*
D03*
D59*
X76378Y30315D02*
D03*
X77953D02*
D03*
X74803D02*
D03*
X73228D02*
D03*
X66929D02*
D03*
X68504D02*
D03*
X71653D02*
D03*
X70079D02*
D03*
X63779D02*
D03*
X65354D02*
D03*
X62205D02*
D03*
X60630D02*
D03*
Y6693D02*
D03*
X62205D02*
D03*
X65354D02*
D03*
X63779D02*
D03*
X70079D02*
D03*
X71653D02*
D03*
X68504D02*
D03*
X66929D02*
D03*
X73228D02*
D03*
X74803D02*
D03*
X77953D02*
D03*
X76378D02*
D03*
D60*
X81102Y27165D02*
D03*
Y25591D02*
D03*
Y22441D02*
D03*
Y24016D02*
D03*
Y17717D02*
D03*
Y16142D02*
D03*
Y19291D02*
D03*
Y20866D02*
D03*
Y14567D02*
D03*
Y12992D02*
D03*
Y9843D02*
D03*
Y11417D02*
D03*
X57480D02*
D03*
Y9843D02*
D03*
Y12992D02*
D03*
Y14567D02*
D03*
Y20866D02*
D03*
Y19291D02*
D03*
Y16142D02*
D03*
Y17717D02*
D03*
Y24016D02*
D03*
Y22441D02*
D03*
Y25591D02*
D03*
Y27165D02*
D03*
D61*
X69291Y18504D02*
D03*
D62*
X58661Y55315D02*
D03*
X54331D02*
D03*
X46457D02*
D03*
X50787D02*
D03*
X46457Y50984D02*
D03*
X50787D02*
D03*
X95472Y14173D02*
D03*
X91142D02*
D03*
X83268Y55905D02*
D03*
X87598D02*
D03*
X83268Y52362D02*
D03*
X87598D02*
D03*
X33661Y20079D02*
D03*
X29331D02*
D03*
X87598Y22047D02*
D03*
X91929D02*
D03*
X87598Y25591D02*
D03*
X91929D02*
D03*
X65945Y35236D02*
D03*
X61614D02*
D03*
X77953Y35039D02*
D03*
X82284D02*
D03*
X87598Y38976D02*
D03*
X91929D02*
D03*
X79134Y2756D02*
D03*
X74803D02*
D03*
X66929D02*
D03*
X71260D02*
D03*
X53543D02*
D03*
X57874D02*
D03*
X45472D02*
D03*
X41142D02*
D03*
Y6299D02*
D03*
X45472D02*
D03*
Y11811D02*
D03*
X41142D02*
D03*
X45472Y15354D02*
D03*
X41142D02*
D03*
X37795Y20079D02*
D03*
X42126D02*
D03*
X22244Y27953D02*
D03*
X17913D02*
D03*
D63*
X52165Y27362D02*
D03*
Y31299D02*
D03*
D64*
X18504Y53150D02*
D03*
X4331D02*
D03*
X18504Y43307D02*
D03*
X4331D02*
D03*
D65*
X41142Y39862D02*
D03*
Y44783D02*
D03*
Y49705D02*
D03*
Y54626D02*
D03*
X32874Y39862D02*
D03*
Y44783D02*
D03*
Y49705D02*
D03*
Y54626D02*
D03*
D66*
X28150Y4922D02*
D03*
X18307Y4921D02*
D03*
D67*
X12598Y18504D02*
D03*
X14961D02*
D03*
X12598Y21654D02*
D03*
X14961D02*
D03*
X12598Y24803D02*
D03*
X14961D02*
D03*
D68*
X25591Y12598D02*
D03*
Y14567D02*
D03*
Y16535D02*
D03*
X17717D02*
D03*
Y14567D02*
D03*
Y12598D02*
D03*
D69*
X21654Y14567D02*
D03*
D70*
X5512Y3150D02*
D03*
D71*
X25197Y36811D02*
D03*
Y32874D02*
D03*
D72*
X41732Y29134D02*
D03*
Y27165D02*
D03*
Y25197D02*
D03*
Y31102D02*
D03*
Y33071D02*
D03*
X31496Y25197D02*
D03*
Y27165D02*
D03*
Y33071D02*
D03*
Y31102D02*
D03*
Y29134D02*
D03*
D73*
X36614Y24016D02*
D03*
X38583D02*
D03*
X34646D02*
D03*
X38583Y34252D02*
D03*
X34646D02*
D03*
X36614D02*
D03*
D74*
X13779Y34647D02*
D03*
X13779Y28348D02*
D03*
D75*
X5512Y12284D02*
D03*
Y22284D02*
D03*
D76*
Y32283D02*
D03*
D77*
Y3150D02*
D03*
M02*
