G04 Layer_Color=8421504*
%FSLAX25Y25*%
%MOIN*%
G70*
G01*
G75*
G04:AMPARAMS|DCode=10|XSize=19.68mil|YSize=39.37mil|CornerRadius=4.92mil|HoleSize=0mil|Usage=FLASHONLY|Rotation=90.000|XOffset=0mil|YOffset=0mil|HoleType=Round|Shape=RoundedRectangle|*
%AMROUNDEDRECTD10*
21,1,0.01968,0.02953,0,0,90.0*
21,1,0.00984,0.03937,0,0,90.0*
1,1,0.00984,0.01476,0.00492*
1,1,0.00984,0.01476,-0.00492*
1,1,0.00984,-0.01476,-0.00492*
1,1,0.00984,-0.01476,0.00492*
%
%ADD10ROUNDEDRECTD10*%
%ADD11R,0.02362X0.02362*%
G04:AMPARAMS|DCode=12|XSize=39.37mil|YSize=39.37mil|CornerRadius=9.84mil|HoleSize=0mil|Usage=FLASHONLY|Rotation=180.000|XOffset=0mil|YOffset=0mil|HoleType=Round|Shape=RoundedRectangle|*
%AMROUNDEDRECTD12*
21,1,0.03937,0.01968,0,0,180.0*
21,1,0.01968,0.03937,0,0,180.0*
1,1,0.01968,-0.00984,0.00984*
1,1,0.01968,0.00984,0.00984*
1,1,0.01968,0.00984,-0.00984*
1,1,0.01968,-0.00984,-0.00984*
%
%ADD12ROUNDEDRECTD12*%
%ADD13R,0.02953X0.03347*%
%ADD14O,0.03150X0.01575*%
%ADD15R,0.09449X0.11811*%
%ADD16O,0.00787X0.03150*%
%ADD17O,0.03150X0.00787*%
%ADD18R,0.18110X0.18110*%
%ADD19R,0.02362X0.02362*%
G04:AMPARAMS|DCode=20|XSize=31.5mil|YSize=39.37mil|CornerRadius=7.87mil|HoleSize=0mil|Usage=FLASHONLY|Rotation=270.000|XOffset=0mil|YOffset=0mil|HoleType=Round|Shape=RoundedRectangle|*
%AMROUNDEDRECTD20*
21,1,0.03150,0.02362,0,0,270.0*
21,1,0.01575,0.03937,0,0,270.0*
1,1,0.01575,-0.01181,-0.00787*
1,1,0.01575,-0.01181,0.00787*
1,1,0.01575,0.01181,0.00787*
1,1,0.01575,0.01181,-0.00787*
%
%ADD20ROUNDEDRECTD20*%
%ADD21R,0.06299X0.07874*%
%ADD22R,0.05512X0.02362*%
%ADD23R,0.04331X0.05512*%
%ADD24R,0.01378X0.01378*%
%ADD25R,0.01968X0.00984*%
%ADD26R,0.03937X0.07087*%
G04:AMPARAMS|DCode=27|XSize=59.05mil|YSize=86.61mil|CornerRadius=14.76mil|HoleSize=0mil|Usage=FLASHONLY|Rotation=90.000|XOffset=0mil|YOffset=0mil|HoleType=Round|Shape=RoundedRectangle|*
%AMROUNDEDRECTD27*
21,1,0.05905,0.05709,0,0,90.0*
21,1,0.02953,0.08661,0,0,90.0*
1,1,0.02953,0.02854,0.01476*
1,1,0.02953,0.02854,-0.01476*
1,1,0.02953,-0.02854,-0.01476*
1,1,0.02953,-0.02854,0.01476*
%
%ADD27ROUNDEDRECTD27*%
%ADD28R,0.02165X0.01772*%
%ADD29O,0.03150X0.01181*%
%ADD30O,0.01181X0.03150*%
%ADD31R,0.03937X0.02756*%
D10*
X132087Y8071D02*
D03*
Y21850D02*
D03*
X120276D02*
D03*
Y29724D02*
D03*
X132087D02*
D03*
Y37598D02*
D03*
X120276D02*
D03*
Y45472D02*
D03*
X132087D02*
D03*
Y53347D02*
D03*
X120276D02*
D03*
D11*
X99016Y18504D02*
D03*
Y14173D02*
D03*
X36220Y8465D02*
D03*
Y4134D02*
D03*
X32677D02*
D03*
Y8465D02*
D03*
X87598Y14173D02*
D03*
Y18504D02*
D03*
X54528Y39567D02*
D03*
Y35236D02*
D03*
X58071Y39567D02*
D03*
Y35236D02*
D03*
X95669Y26378D02*
D03*
Y22047D02*
D03*
X49016Y7087D02*
D03*
Y2756D02*
D03*
Y14961D02*
D03*
Y10630D02*
D03*
X32677Y16339D02*
D03*
Y12008D02*
D03*
X29134Y16339D02*
D03*
Y12008D02*
D03*
X45669Y24409D02*
D03*
Y20079D02*
D03*
Y33268D02*
D03*
Y28937D02*
D03*
X12992Y8071D02*
D03*
Y12402D02*
D03*
X25197Y20276D02*
D03*
Y24606D02*
D03*
X24213Y53937D02*
D03*
Y49606D02*
D03*
X27756Y53937D02*
D03*
Y49606D02*
D03*
Y40354D02*
D03*
Y44685D02*
D03*
X18110Y20276D02*
D03*
Y24606D02*
D03*
X21654Y20276D02*
D03*
Y24606D02*
D03*
X18110Y37008D02*
D03*
Y32677D02*
D03*
X21654D02*
D03*
Y37008D02*
D03*
D12*
X95276Y45276D02*
D03*
X85827Y3937D02*
D03*
X95276D02*
D03*
X85827Y45276D02*
D03*
D13*
X91929Y35039D02*
D03*
X87598D02*
D03*
Y29528D02*
D03*
X91929D02*
D03*
D14*
X77953Y53740D02*
D03*
Y50591D02*
D03*
Y44291D02*
D03*
Y47441D02*
D03*
X62992Y50591D02*
D03*
Y53740D02*
D03*
Y47441D02*
D03*
Y44291D02*
D03*
D15*
X70472Y49016D02*
D03*
D16*
X76378Y30315D02*
D03*
X77953D02*
D03*
X74803D02*
D03*
X73228D02*
D03*
X66929D02*
D03*
X68504D02*
D03*
X71653D02*
D03*
X70079D02*
D03*
X63779D02*
D03*
X65354D02*
D03*
X62205D02*
D03*
X60630D02*
D03*
Y6693D02*
D03*
X62205D02*
D03*
X65354D02*
D03*
X63779D02*
D03*
X70079D02*
D03*
X71653D02*
D03*
X68504D02*
D03*
X66929D02*
D03*
X73228D02*
D03*
X74803D02*
D03*
X77953D02*
D03*
X76378D02*
D03*
D17*
X81102Y27165D02*
D03*
Y25591D02*
D03*
Y22441D02*
D03*
Y24016D02*
D03*
Y17717D02*
D03*
Y16142D02*
D03*
Y19291D02*
D03*
Y20866D02*
D03*
Y14567D02*
D03*
Y12992D02*
D03*
Y9843D02*
D03*
Y11417D02*
D03*
X57480D02*
D03*
Y9843D02*
D03*
Y12992D02*
D03*
Y14567D02*
D03*
Y20866D02*
D03*
Y19291D02*
D03*
Y16142D02*
D03*
Y17717D02*
D03*
Y24016D02*
D03*
Y22441D02*
D03*
Y25591D02*
D03*
Y27165D02*
D03*
D18*
X69291Y18504D02*
D03*
D19*
X58661Y55315D02*
D03*
X54331D02*
D03*
X46457D02*
D03*
X50787D02*
D03*
X46457Y50984D02*
D03*
X50787D02*
D03*
X95472Y14173D02*
D03*
X91142D02*
D03*
X83268Y55905D02*
D03*
X87598D02*
D03*
X83268Y52362D02*
D03*
X87598D02*
D03*
X33661Y20079D02*
D03*
X29331D02*
D03*
X87598Y22047D02*
D03*
X91929D02*
D03*
X87598Y25591D02*
D03*
X91929D02*
D03*
X65945Y35236D02*
D03*
X61614D02*
D03*
X77953Y35039D02*
D03*
X82284D02*
D03*
X87598Y38976D02*
D03*
X91929D02*
D03*
X79134Y2756D02*
D03*
X74803D02*
D03*
X66929D02*
D03*
X71260D02*
D03*
X53543D02*
D03*
X57874D02*
D03*
X45472D02*
D03*
X41142D02*
D03*
Y6299D02*
D03*
X45472D02*
D03*
Y11811D02*
D03*
X41142D02*
D03*
X45472Y15354D02*
D03*
X41142D02*
D03*
X37795Y20079D02*
D03*
X42126D02*
D03*
X22244Y27953D02*
D03*
X17913D02*
D03*
D20*
X52165Y27362D02*
D03*
Y31299D02*
D03*
D21*
X18504Y53150D02*
D03*
X4331D02*
D03*
X18504Y43307D02*
D03*
X4331D02*
D03*
D22*
X41142Y39862D02*
D03*
Y44783D02*
D03*
Y49705D02*
D03*
Y54626D02*
D03*
X32874Y39862D02*
D03*
Y44783D02*
D03*
Y49705D02*
D03*
Y54626D02*
D03*
D23*
X28150Y4922D02*
D03*
X18307Y4921D02*
D03*
D24*
X12598Y18504D02*
D03*
X14961D02*
D03*
X12598Y21654D02*
D03*
X14961D02*
D03*
X12598Y24803D02*
D03*
X14961D02*
D03*
D25*
X25591Y12598D02*
D03*
Y14567D02*
D03*
Y16535D02*
D03*
X17717D02*
D03*
Y14567D02*
D03*
Y12598D02*
D03*
D26*
X21654Y14567D02*
D03*
D27*
X5512Y3150D02*
D03*
D28*
X25197Y36811D02*
D03*
Y32874D02*
D03*
D29*
X41732Y29134D02*
D03*
Y27165D02*
D03*
Y25197D02*
D03*
Y31102D02*
D03*
Y33071D02*
D03*
X31496Y25197D02*
D03*
Y27165D02*
D03*
Y33071D02*
D03*
Y31102D02*
D03*
Y29134D02*
D03*
D30*
X36614Y24016D02*
D03*
X38583D02*
D03*
X34646D02*
D03*
X38583Y34252D02*
D03*
X34646D02*
D03*
X36614D02*
D03*
D31*
X13779Y34647D02*
D03*
X13779Y28348D02*
D03*
M02*
